<svg width="50" height="50" viewBox="0 0 50 50" fill="none" xmlns="http://www.w3.org/2000/svg">
<path d="M27.9379 25L36.8962 16.0625C37.2885 15.6702 37.5089 15.1381 37.5089 14.5833C37.5089 14.0285 37.2885 13.4964 36.8962 13.1041C36.5039 12.7118 35.9718 12.4915 35.417 12.4915C34.8622 12.4915 34.3302 12.7118 33.9379 13.1041L25.0004 22.0625L16.0629 13.1041C15.6706 12.7118 15.1385 12.4915 14.5837 12.4915C14.0289 12.4915 13.4968 12.7118 13.1045 13.1041C12.7122 13.4964 12.4918 14.0285 12.4918 14.5833C12.4918 15.1381 12.7122 15.6702 13.1045 16.0625L22.0629 25L13.1045 33.9375C12.9093 34.1312 12.7543 34.3616 12.6485 34.6154C12.5427 34.8693 12.4883 35.1416 12.4883 35.4166C12.4883 35.6917 12.5427 35.964 12.6485 36.2178C12.7543 36.4717 12.9093 36.7021 13.1045 36.8958C13.2982 37.0911 13.5286 37.2461 13.7825 37.3518C14.0364 37.4576 14.3087 37.5121 14.5837 37.5121C14.8587 37.5121 15.131 37.4576 15.3849 37.3518C15.6388 37.2461 15.8692 37.0911 16.0629 36.8958L25.0004 27.9375L33.9379 36.8958C34.1315 37.0911 34.362 37.2461 34.6158 37.3518C34.8697 37.4576 35.142 37.5121 35.417 37.5121C35.6921 37.5121 35.9644 37.4576 36.2182 37.3518C36.4721 37.2461 36.7025 37.0911 36.8962 36.8958C37.0915 36.7021 37.2465 36.4717 37.3522 36.2178C37.458 35.964 37.5124 35.6917 37.5124 35.4166C37.5124 35.1416 37.458 34.8693 37.3522 34.6154C37.2465 34.3616 37.0915 34.1312 36.8962 33.9375L27.9379 25Z" fill="#702082"/>
</svg>
