<svg width="38" height="41" viewBox="0 0 38 41" fill="none" xmlns="http://www.w3.org/2000/svg">
<path d="M35.3165 0.916504H2.68317C2.14832 0.916504 1.63537 1.14346 1.25717 1.54745C0.878974 1.95143 0.666504 2.49935 0.666504 3.07067V37.929C0.666504 38.2119 0.718667 38.492 0.820014 38.7534C0.921361 39.0147 1.06991 39.2522 1.25717 39.4522C1.44444 39.6523 1.66675 39.8109 1.91143 39.9192C2.1561 40.0275 2.41834 40.0832 2.68317 40.0832H20.2465V24.9061H15.4798V19.0311H20.2465V14.6248C20.1478 13.5904 20.2621 12.5453 20.5815 11.5631C20.9009 10.5808 21.4176 9.68503 22.0954 8.93864C22.7731 8.19226 23.5956 7.6133 24.505 7.24239C25.4144 6.87147 26.3888 6.71758 27.3598 6.7915C28.7868 6.78212 30.213 6.86059 31.6315 7.0265V12.314H28.7165C26.4065 12.314 25.9665 13.489 25.9665 15.1928V18.9723H31.4665L30.7515 24.8473H25.9665V40.0832H35.3165C35.5813 40.0832 35.8436 40.0275 36.0882 39.9192C36.3329 39.8109 36.5552 39.6523 36.7425 39.4522C36.9298 39.2522 37.0783 39.0147 37.1797 38.7534C37.281 38.492 37.3332 38.2119 37.3332 37.929V3.07067C37.3332 2.78778 37.281 2.50766 37.1797 2.24631C37.0783 1.98495 36.9298 1.74748 36.7425 1.54745C36.5552 1.34741 36.3329 1.18874 36.0882 1.08048C35.8436 0.972223 35.5813 0.916504 35.3165 0.916504Z" fill="#702082"/>
</svg>
