<svg width="39" height="39" viewBox="0 0 39 39" fill="none" xmlns="http://www.w3.org/2000/svg">
<path d="M19.5 14.85C18.5803 14.85 17.6813 15.1227 16.9166 15.6337C16.1519 16.1446 15.5559 16.8708 15.204 17.7205C14.852 18.5702 14.7599 19.5052 14.9393 20.4072C15.1188 21.3092 15.5616 22.1377 16.212 22.788C16.8623 23.4384 17.6908 23.8812 18.5928 24.0607C19.4948 24.2401 20.4298 24.148 21.2795 23.796C22.1292 23.4441 22.8554 22.8481 23.3663 22.0834C23.8773 21.3187 24.15 20.4197 24.15 19.5C24.15 18.8894 24.0297 18.2847 23.796 17.7205C23.5624 17.1564 23.2198 16.6437 22.788 16.212C22.3563 15.7802 21.8436 15.4376 21.2795 15.204C20.7153 14.9703 20.1106 14.85 19.5 14.85ZM38.1188 10.2563C38.1089 8.8083 37.8423 7.37357 37.3312 6.01875C36.9549 5.02736 36.3726 4.12705 35.6228 3.37722C34.8729 2.62739 33.9726 2.0451 32.9813 1.66875C31.6264 1.15774 30.1917 0.891114 28.7438 0.88125C26.325 0.75 25.6125 0.75 19.5 0.75C13.3875 0.75 12.675 0.75 10.2563 0.88125C8.8083 0.891114 7.37357 1.15774 6.01875 1.66875C5.02736 2.0451 4.12705 2.62739 3.37722 3.37722C2.62739 4.12705 2.0451 5.02736 1.66875 6.01875C1.15774 7.37357 0.891114 8.8083 0.88125 10.2563C0.75 12.675 0.75 13.3875 0.75 19.5C0.75 25.6125 0.75 26.325 0.88125 28.7438C0.901432 30.1968 1.1677 31.6359 1.66875 33C2.04343 33.9869 2.62524 34.882 3.375 35.625C4.12161 36.3793 5.02385 36.9616 6.01875 37.3312C7.37357 37.8423 8.8083 38.1089 10.2563 38.1188C12.675 38.25 13.3875 38.25 19.5 38.25C25.6125 38.25 26.325 38.25 28.7438 38.1188C30.1917 38.1089 31.6264 37.8423 32.9813 37.3312C33.9761 36.9616 34.8784 36.3793 35.625 35.625C36.3748 34.882 36.9566 33.9869 37.3312 33C37.8418 31.6385 38.1083 30.1977 38.1188 28.7438C38.25 26.325 38.25 25.6125 38.25 19.5C38.25 13.3875 38.25 12.675 38.1188 10.2563ZM33.3562 25.2562C33.2961 26.4133 33.0491 27.553 32.625 28.6313C32.261 29.5307 31.7199 30.3477 31.0338 31.0338C30.3477 31.7199 29.5307 32.261 28.6313 32.625C27.5428 33.0255 26.3968 33.2471 25.2375 33.2812C23.7563 33.2812 23.3625 33.2812 19.5 33.2812C15.6375 33.2812 15.2437 33.2812 13.7625 33.2812C12.6032 33.2471 11.4572 33.0255 10.3688 32.625C9.43894 32.2795 8.59927 31.7282 7.9125 31.0125C7.23312 30.3398 6.70846 29.5273 6.375 28.6313C5.97292 27.544 5.75739 26.3966 5.7375 25.2375C5.7375 23.7563 5.7375 23.3625 5.7375 19.5C5.7375 15.6375 5.7375 15.2437 5.7375 13.7625C5.75739 12.6034 5.97292 11.456 6.375 10.3688C6.72053 9.43894 7.27176 8.59927 7.9875 7.9125C8.66313 7.23679 9.47487 6.71268 10.3688 6.375C11.4572 5.97451 12.6032 5.75289 13.7625 5.71875C15.2437 5.71875 15.6375 5.71875 19.5 5.71875C23.3625 5.71875 23.7563 5.71875 25.2375 5.71875C26.3968 5.75289 27.5428 5.97451 28.6313 6.375C29.5611 6.72053 30.4007 7.27176 31.0875 7.9875C31.7669 8.66015 32.2915 9.47275 32.625 10.3688C33.0255 11.4572 33.2471 12.6032 33.2812 13.7625C33.2812 15.2437 33.2812 15.6375 33.2812 19.5C33.2812 23.3625 33.4125 23.7563 33.3562 25.2375V25.2562ZM30.3563 11.3063C30.133 10.7006 29.781 10.1506 29.3246 9.69415C28.8682 9.23772 28.3182 8.88574 27.7125 8.6625C26.8809 8.37424 26.005 8.23461 25.125 8.25C23.6625 8.25 23.25 8.25 19.5 8.25C15.75 8.25 15.3375 8.25 13.875 8.25C12.9905 8.25865 12.1145 8.42369 11.2875 8.7375C10.6911 8.95061 10.1469 9.28821 9.69109 9.72788C9.23526 10.1675 8.87824 10.6992 8.64375 11.2875C8.37146 12.1226 8.23843 12.9967 8.25 13.875C8.25 15.3375 8.25 15.75 8.25 19.5C8.25 23.25 8.25 23.6625 8.25 25.125C8.26859 26.0085 8.43332 26.8828 8.7375 27.7125C8.96074 28.3182 9.31272 28.8682 9.76915 29.3246C10.2256 29.781 10.7756 30.133 11.3813 30.3563C12.1812 30.6505 13.0231 30.815 13.875 30.8437C15.3375 30.8437 15.75 30.8437 19.5 30.8437C23.25 30.8437 23.6625 30.8437 25.125 30.8437C26.0095 30.8351 26.8855 30.6701 27.7125 30.3563C28.3182 30.133 28.8682 29.781 29.3246 29.3246C29.781 28.8682 30.133 28.3182 30.3563 27.7125C30.6701 26.8855 30.8351 26.0095 30.8437 25.125C30.8437 23.6625 30.8437 23.25 30.8437 19.5C30.8437 15.75 30.8437 15.3375 30.8437 13.875C30.8443 12.9896 30.6789 12.112 30.3563 11.2875V11.3063ZM19.5 26.6625C18.5603 26.6625 17.6298 26.4771 16.7619 26.1169C15.8939 25.7567 15.1056 25.2289 14.442 24.5635C13.7784 23.8982 13.2525 23.1084 12.8946 22.2396C12.5367 21.3707 12.3538 20.4397 12.3562 19.5C12.3563 18.0826 12.7768 16.6971 13.5647 15.5188C14.3525 14.3405 15.4723 13.4225 16.7821 12.8809C18.092 12.3394 19.5331 12.1986 20.923 12.4765C22.3129 12.7544 23.5891 13.4384 24.59 14.442C25.591 15.4456 26.2717 16.7236 26.5459 18.1142C26.8201 19.5048 26.6756 20.9455 26.1306 22.254C25.5857 23.5624 24.6647 24.6798 23.4844 25.4645C22.304 26.2493 20.9174 26.6662 19.5 26.6625ZM27 13.7438C26.5855 13.6999 26.2019 13.5042 25.9232 13.1943C25.6444 12.8845 25.4901 12.4824 25.4901 12.0656C25.4901 11.6488 25.6444 11.2468 25.9232 10.9369C26.2019 10.6271 26.5855 10.4314 27 10.3875C27.4145 10.4314 27.7981 10.6271 28.0768 10.9369C28.3556 11.2468 28.5099 11.6488 28.5099 12.0656C28.5099 12.4824 28.3556 12.8845 28.0768 13.1943C27.7981 13.5042 27.4145 13.6999 27 13.7438Z" fill="#702082"/>
</svg>
