<svg width="44" height="40" viewBox="0 0 44 40" fill="none" xmlns="http://www.w3.org/2000/svg">
<path d="M26.4166 14.75V7.75C26.4166 6.35761 25.7977 5.02226 24.6959 4.03769C23.5941 3.05312 22.0998 2.5 20.5416 2.5L12.7083 18.25V37.5H34.7983C35.7428 37.5095 36.6594 37.2137 37.3792 36.667C38.0989 36.1203 38.5733 35.3596 38.715 34.525L41.4175 18.775C41.5027 18.2734 41.4648 17.7612 41.3065 17.2739C41.1482 16.7867 40.8732 16.336 40.5007 15.9532C40.1281 15.5703 39.6669 15.2644 39.1489 15.0566C38.6309 14.8489 38.0685 14.7443 37.5008 14.75H26.4166ZM12.7083 37.5H6.83329C5.79453 37.5 4.79831 37.1313 4.06379 36.4749C3.32927 35.8185 2.91663 34.9283 2.91663 34V21.75C2.91663 20.8217 3.32927 19.9315 4.06379 19.2751C4.79831 18.6188 5.79453 18.25 6.83329 18.25H12.7083" fill="#FCF2F8"/>
<path d="M12.7083 37.5H6.83329C5.79453 37.5 4.79831 37.1313 4.06379 36.4749C3.32927 35.8185 2.91663 34.9283 2.91663 34V21.75C2.91663 20.8217 3.32927 19.9315 4.06379 19.2751C4.79831 18.6188 5.79453 18.25 6.83329 18.25H12.7083M26.4166 14.75V7.75C26.4166 6.35761 25.7977 5.02226 24.6959 4.03769C23.5941 3.05312 22.0998 2.5 20.5416 2.5L12.7083 18.25V37.5H34.7983C35.7428 37.5095 36.6594 37.2137 37.3792 36.667C38.0989 36.1203 38.5733 35.3596 38.715 34.525L41.4175 18.775C41.5027 18.2734 41.4648 17.7612 41.3065 17.2739C41.1482 16.7867 40.8732 16.336 40.5007 15.9532C40.1281 15.5703 39.6669 15.2644 39.1489 15.0566C38.6309 14.8489 38.0685 14.7443 37.5008 14.75H26.4166Z" stroke="#702082" stroke-width="5" stroke-linecap="round" stroke-linejoin="round"/>
<rect x="15" y="14" width="24" height="22" fill="#702082"/>
<rect x="17" y="5" width="8" height="14" fill="#702082"/>
</svg>
