<svg width="36" height="37" viewBox="0 0 36 37" fill="none" xmlns="http://www.w3.org/2000/svg">
<path fill-rule="evenodd" clip-rule="evenodd" d="M7.36679 18.1958C10.2923 21.2509 15.1407 21.3559 18.1958 18.4303C21.2509 15.5046 21.3559 10.6563 18.4303 7.60115C15.5046 4.5461 10.6563 4.44112 7.60116 7.36672C4.54611 10.2924 4.44113 15.1407 7.36679 18.1958ZM19.9246 23.4312C14.913 26.7829 8.06954 26.159 3.75546 21.6539C-1.07999 16.6044 -0.90653 8.59102 4.14303 3.75551C9.19247 -1.08 17.2059 -0.906539 22.0415 4.14302C26.404 8.69862 26.6894 15.6667 22.9956 20.5371L34.8488 32.9149C35.6547 33.7565 35.6258 35.0921 34.7843 35.898C33.9427 36.7039 32.6071 36.675 31.8012 35.8334L19.9246 23.4312Z" fill="white"/>
</svg>
