<svg width="47" height="42" viewBox="0 0 47 42" fill="none" xmlns="http://www.w3.org/2000/svg">
<path d="M41.125 20.1251C41.1317 22.4348 40.5278 24.7133 39.3625 26.7751C37.9808 29.2456 35.8566 31.3236 33.2279 32.7763C30.5992 34.229 27.5699 34.999 24.4792 35.0001C21.8944 35.0061 19.3446 34.4664 17.0375 33.4251L5.875 36.7501L9.59583 26.7751C8.43049 24.7133 7.82659 22.4348 7.83333 20.1251C7.83453 17.3631 8.6962 14.656 10.3218 12.307C11.9475 9.95799 14.2728 8.05979 17.0375 6.82505C19.3446 5.78368 21.8944 5.24403 24.4792 5.25005H25.4583C29.5402 5.45129 33.3955 6.99088 36.2862 9.57405C39.1769 12.1572 40.8998 15.6024 41.125 19.2501V20.1251Z" stroke="#702082" stroke-width="5" stroke-linecap="round" stroke-linejoin="round"/>
</svg>
