<svg width="20" height="20" viewBox="0 0 20 20" fill="none" xmlns="http://www.w3.org/2000/svg">
<g clip-path="url(#clip0)">
<path d="M14.512 11.9816C14.265 11.8576 13.047 11.2576 12.82 11.1756C12.593 11.0926 12.428 11.0516 12.263 11.2996C12.098 11.5466 11.623 12.1056 11.478 12.2706C11.334 12.4356 11.189 12.4556 10.942 12.3316C10.2121 12.041 9.53832 11.6255 8.951 11.1036C8.40932 10.6029 7.94493 10.0246 7.573 9.38763C7.429 9.13963 7.558 9.00563 7.682 8.88263C7.793 8.77163 7.93 8.59363 8.053 8.44863C8.15487 8.32344 8.23838 8.18438 8.301 8.03563C8.33395 7.96727 8.34929 7.89175 8.34562 7.81596C8.34196 7.74016 8.3194 7.66648 8.28 7.60162C8.218 7.47762 7.723 6.25862 7.517 5.76262C7.316 5.28062 7.112 5.34562 6.959 5.33762C6.815 5.33062 6.65 5.32862 6.485 5.32862C6.35949 5.33212 6.23605 5.36156 6.12247 5.41508C6.00888 5.46861 5.9076 5.54506 5.825 5.63962C5.54502 5.90476 5.32334 6.2253 5.17407 6.58083C5.0248 6.93637 4.95121 7.31909 4.958 7.70462C5.0383 8.63886 5.38968 9.52931 5.969 10.2666C7.03092 11.8587 8.48863 13.1472 10.199 14.0056C10.6604 14.2038 11.1317 14.3781 11.611 14.5276C12.1163 14.681 12.6505 14.7143 13.171 14.6246C13.5157 14.5548 13.8422 14.4142 14.1298 14.2118C14.4174 14.0094 14.6599 13.7495 14.842 13.4486C15.0044 13.0786 15.0545 12.6689 14.986 12.2706C14.925 12.1666 14.76 12.1056 14.512 11.9816V11.9816ZM17.004 2.90263C15.3039 1.20298 13.0442 0.179035 10.6454 0.02143C8.24662 -0.136175 5.8723 0.583299 3.96448 2.0459C2.05667 3.50851 0.745358 5.61457 0.274694 7.97199C-0.195971 10.3294 0.206082 12.7776 1.406 14.8606L0 19.9956L5.254 18.6186C6.70716 19.4099 8.33538 19.8245 9.99 19.8246H9.994C11.9541 19.8236 13.8699 19.2417 15.4994 18.1523C17.1289 17.063 18.399 15.5151 19.1491 13.7042C19.8993 11.8933 20.0959 9.90076 19.7141 7.97821C19.3323 6.05566 18.3892 4.28941 17.004 2.90262V2.90263ZM14.371 16.8916C13.0591 17.7139 11.5423 18.1502 9.994 18.1506H9.99C8.5149 18.1505 7.06699 17.7537 5.798 17.0016L5.497 16.8236L2.379 17.6416L3.211 14.6016L3.016 14.2896C2.15055 12.9095 1.71378 11.3037 1.76094 9.67528C1.80809 8.04689 2.33705 6.46906 3.28092 5.1413C4.22479 3.81353 5.54119 2.79547 7.06365 2.21584C8.58611 1.63621 10.2463 1.52105 11.8342 1.88492C13.4221 2.24879 14.8664 3.07535 15.9846 4.26007C17.1027 5.4448 17.8445 6.93449 18.116 8.54076C18.3876 10.147 18.1767 11.7978 17.5101 13.2842C16.8435 14.7706 15.7511 16.026 14.371 16.8916" fill="#702082"/>
</g>
<defs>
<clipPath id="clip0">
<rect width="19.904" height="19.9956" fill="white"/>
</clipPath>
</defs>
</svg>
