<svg width="38" height="41" viewBox="0 0 38 41" fill="none" xmlns="http://www.w3.org/2000/svg">
<path d="M35.3167 0.916626H2.68341C2.14856 0.916626 1.63561 1.14358 1.25742 1.54757C0.879218 1.95155 0.666748 2.49947 0.666748 3.07079V37.9291C0.666748 38.212 0.718911 38.4921 0.820258 38.7535C0.921605 39.0149 1.07015 39.2523 1.25742 39.4524C1.44468 39.6524 1.667 39.8111 1.91167 39.9193C2.15634 40.0276 2.41858 40.0833 2.68341 40.0833H20.2467V24.9062H15.4801V19.0312H20.2467V14.625C20.148 13.5905 20.2623 12.5455 20.5817 11.5632C20.9011 10.5809 21.4178 9.68515 22.0956 8.93877C22.7734 8.19238 23.5958 7.61342 24.5053 7.24251C25.4147 6.8716 26.3891 6.7177 27.3601 6.79163C28.787 6.78225 30.2133 6.86071 31.6317 7.02663V12.3141H28.7167C26.4067 12.3141 25.9667 13.4891 25.9667 15.1929V18.9725H31.4667L30.7517 24.8475H25.9667V40.0833H35.3167C35.5816 40.0833 35.8438 40.0276 36.0885 39.9193C36.3332 39.8111 36.5555 39.6524 36.7427 39.4524C36.93 39.2523 37.0786 39.0149 37.1799 38.7535C37.2813 38.4921 37.3334 38.212 37.3334 37.9291V3.07079C37.3334 2.7879 37.2813 2.50778 37.1799 2.24643C37.0786 1.98507 36.93 1.7476 36.7427 1.54757C36.5555 1.34753 36.3332 1.18886 36.0885 1.0806C35.8438 0.972345 35.5816 0.916626 35.3167 0.916626Z" fill="white"/>
</svg>
