<svg width="39" height="41" viewBox="0 0 39 41" fill="none" xmlns="http://www.w3.org/2000/svg">
<path d="M36.0871 0.916656H2.91293C2.54002 0.911477 2.16974 0.979807 1.82325 1.11774C1.47675 1.25568 1.16082 1.46053 0.893492 1.72057C0.626168 1.98062 0.412689 2.29079 0.265247 2.63335C0.117805 2.97591 0.0392878 3.34416 0.0341797 3.71707V37.2829C0.0392878 37.6558 0.117805 38.0241 0.265247 38.3666C0.412689 38.7092 0.626168 39.0193 0.893492 39.2794C1.16082 39.5394 1.47675 39.7443 1.82325 39.8822C2.16974 40.0202 2.54002 40.0885 2.91293 40.0833H36.0871C36.46 40.0885 36.8303 40.0202 37.1768 39.8822C37.5233 39.7443 37.8392 39.5394 38.1065 39.2794C38.3739 39.0193 38.5873 38.7092 38.7348 38.3666C38.8822 38.0241 38.9607 37.6558 38.9659 37.2829V3.71707C38.9607 3.34416 38.8822 2.97591 38.7348 2.63335C38.5873 2.29079 38.3739 1.98062 38.1065 1.72057C37.8392 1.46053 37.5233 1.25568 37.1768 1.11774C36.8303 0.979807 36.46 0.911477 36.0871 0.916656ZM11.8429 33.6992H5.96793V16.0742H11.8429V33.6992ZM8.90543 13.6067C8.09519 13.6067 7.31814 13.2848 6.74522 12.7119C6.1723 12.1389 5.85043 11.3619 5.85043 10.5517C5.85043 9.74142 6.1723 8.96437 6.74522 8.39144C7.31814 7.81852 8.09519 7.49666 8.90543 7.49666C9.33567 7.44786 9.77136 7.49049 10.184 7.62176C10.5966 7.75303 10.9768 7.96996 11.2998 8.25837C11.6228 8.54678 11.8812 8.90015 12.0581 9.29535C12.235 9.69055 12.3265 10.1187 12.3265 10.5517C12.3265 10.9847 12.235 11.4128 12.0581 11.808C11.8812 12.2032 11.6228 12.5565 11.2998 12.8449C10.9768 13.1333 10.5966 13.3503 10.184 13.4816C9.77136 13.6128 9.33567 13.6554 8.90543 13.6067ZM33.0321 33.6992H27.1571V24.2404C27.1571 21.8708 26.315 20.3237 24.1804 20.3237C23.5198 20.3286 22.8766 20.5358 22.3373 20.9174C21.7981 21.2991 21.3888 21.8369 21.1646 22.4583C21.0113 22.9186 20.9449 23.4034 20.9688 23.8879V33.6796H15.0938C15.0938 33.6796 15.0938 17.6604 15.0938 16.0546H20.9688V18.5417C21.5025 17.6156 22.2787 16.8526 23.2139 16.335C24.149 15.8174 25.2077 15.5647 26.2758 15.6042C30.1925 15.6042 33.0321 18.1304 33.0321 23.555V33.6992Z" fill="white"/>
</svg>
