<svg width="39" height="41" viewBox="0 0 39 41" fill="none" xmlns="http://www.w3.org/2000/svg">
<path d="M36.0871 0.916778H2.91293C2.54002 0.911599 2.16974 0.979929 1.82325 1.11787C1.47675 1.2558 1.16082 1.46065 0.893492 1.7207C0.626168 1.98075 0.412689 2.29091 0.265247 2.63347C0.117805 2.97603 0.0392878 3.34428 0.0341797 3.71719V37.283C0.0392878 37.6559 0.117805 38.0242 0.265247 38.3667C0.412689 38.7093 0.626168 39.0195 0.893492 39.2795C1.16082 39.5396 1.47675 39.7444 1.82325 39.8824C2.16974 40.0203 2.54002 40.0886 2.91293 40.0834H36.0871C36.46 40.0886 36.8303 40.0203 37.1768 39.8824C37.5233 39.7444 37.8392 39.5396 38.1065 39.2795C38.3739 39.0195 38.5873 38.7093 38.7348 38.3667C38.8822 38.0242 38.9607 37.6559 38.9659 37.283V3.71719C38.9607 3.34428 38.8822 2.97603 38.7348 2.63347C38.5873 2.29091 38.3739 1.98075 38.1065 1.7207C37.8392 1.46065 37.5233 1.2558 37.1768 1.11787C36.8303 0.979929 36.46 0.911599 36.0871 0.916778ZM11.8429 33.6993H5.96793V16.0743H11.8429V33.6993ZM8.90543 13.6068C8.09519 13.6068 7.31814 13.2849 6.74522 12.712C6.1723 12.1391 5.85043 11.362 5.85043 10.5518C5.85043 9.74154 6.1723 8.96449 6.74522 8.39157C7.31814 7.81864 8.09519 7.49678 8.90543 7.49678C9.33567 7.44798 9.77136 7.49062 10.184 7.62188C10.5966 7.75315 10.9768 7.97009 11.2998 8.25849C11.6228 8.5469 11.8812 8.90027 12.0581 9.29547C12.235 9.69067 12.3265 10.1188 12.3265 10.5518C12.3265 10.9848 12.235 11.4129 12.0581 11.8081C11.8812 12.2033 11.6228 12.5567 11.2998 12.8451C10.9768 13.1335 10.5966 13.3504 10.184 13.4817C9.77136 13.6129 9.33567 13.6556 8.90543 13.6068ZM33.0321 33.6993H27.1571V24.2405C27.1571 21.8709 26.315 20.3239 24.1804 20.3239C23.5198 20.3287 22.8766 20.5359 22.3373 20.9176C21.7981 21.2992 21.3888 21.837 21.1646 22.4584C21.0113 22.9187 20.9449 23.4035 20.9688 23.888V33.6797H15.0938C15.0938 33.6797 15.0938 17.6605 15.0938 16.0547H20.9688V18.5418C21.5025 17.6157 22.2787 16.8528 23.2139 16.3351C24.149 15.8175 25.2077 15.5648 26.2758 15.6043C30.1925 15.6043 33.0321 18.1305 33.0321 23.5551V33.6993Z" fill="#702082"/>
</svg>
