<svg width="38" height="64" viewBox="0 0 38 64" fill="none" xmlns="http://www.w3.org/2000/svg">
<path d="M32.3254 20.2395L32.4502 2L25.7112 3.74899L25.5864 13.1186" fill="white"/>
<path d="M32.3254 20.2395L32.4502 2L25.7112 3.74899L25.5864 13.1186" stroke="#702082" stroke-width="3" stroke-miterlimit="10"/>
<path d="M9.11324 20.1146L9.23803 8.2464L2.49906 9.99539L2.37427 14.7177" fill="#702082"/>
<path d="M9.11324 20.1146L9.23803 8.2464L2.49906 9.99539L2.37427 14.7177" fill="white"/>
<path d="M9.11324 20.1146L9.23803 8.2464L2.49906 9.99539L2.37427 14.7177" stroke="#702082" stroke-width="3" stroke-miterlimit="10"/>
<path d="M20.8442 18.5655V5.24811L14.1052 6.9971V13.6183" fill="white"/>
<path d="M20.8442 18.5655V5.24811L14.1052 6.9971V13.6183" stroke="#702082" stroke-width="3" stroke-miterlimit="10"/>
<path d="M29.4051 27.3604L19.746 27.4854L14.23 17.741H36.0692V31.7329L26.6347 40.7278V51.8464" fill="#702082"/>
<path d="M29.4051 27.3604L19.746 27.4854L14.23 17.741H36.0692V31.7329L26.6347 40.7278V51.8464" fill="white"/>
<path d="M29.4051 27.3604L19.746 27.4854L14.23 17.741H36.0692V31.7329L26.6347 40.7278V51.8464" stroke="#702082" stroke-width="3" stroke-miterlimit="10"/>
<path d="M2 18.3656V32.9822L6.74224 39.4785V52.0962" stroke="#702082" stroke-width="3" stroke-miterlimit="10"/>
<path d="M22.2169 32.8572L14.9788 37.6045V59.342" fill="white"/>
<path d="M22.2169 32.8572L14.9788 37.6045V59.342" stroke="#702082" stroke-width="3" stroke-miterlimit="10"/>
<path d="M15.1035 62.2154C16.6886 62.2154 17.9738 60.9289 17.9738 59.342C17.9738 57.7552 16.6886 56.4687 15.1035 56.4687C13.5183 56.4687 12.2332 57.7552 12.2332 59.342C12.2332 60.9289 13.5183 62.2154 15.1035 62.2154Z" fill="white" stroke="#702082" stroke-width="3" stroke-miterlimit="10"/>
<path d="M9.11347 23.2378C10.6986 23.2378 11.9838 21.9514 11.9838 20.3644C11.9838 18.7775 10.6986 17.4911 9.11347 17.4911C7.52824 17.4911 6.24316 18.7775 6.24316 20.3644C6.24316 21.9514 7.52824 23.2378 9.11347 23.2378Z" fill="white" stroke="#702082" stroke-width="3" stroke-miterlimit="10"/>
</svg>
