<svg width="22" height="22" viewBox="0 0 22 22" fill="none" xmlns="http://www.w3.org/2000/svg">
<path d="M14.0417 6.5L17.4271 3M19.3615 1L17.4271 3L19.3615 1ZM10.0663 10.61C10.5658 11.1195 10.9628 11.726 11.2345 12.3948C11.5063 13.0635 11.6474 13.7813 11.6497 14.5066C11.6521 15.232 11.5156 15.9507 11.2482 16.6213C10.9808 17.2919 10.5877 17.9012 10.0916 18.4141C9.59552 18.9271 9.00617 19.3334 8.35752 19.6099C7.70887 19.8864 7.01373 20.0275 6.31213 20.025C5.61052 20.0226 4.91631 19.8767 4.26947 19.5958C3.62262 19.3148 3.03592 18.9043 2.54314 18.388C1.57409 17.3507 1.03788 15.9614 1.05001 14.5193C1.06213 13.0772 1.62161 11.6977 2.60795 10.678C3.59429 9.65825 4.92856 9.07982 6.32341 9.06729C7.71825 9.05476 9.06205 9.60913 10.0654 10.611L10.0663 10.61ZM10.0663 10.61L14.0417 6.5L10.0663 10.61ZM14.0417 6.5L16.9434 9.5L20.3288 6L17.4271 3L14.0417 6.5Z" stroke="#702082" stroke-width="2" stroke-linecap="round" stroke-linejoin="round"/>
</svg>
