<svg width="28" height="28" viewBox="0 0 28 28" fill="none" xmlns="http://www.w3.org/2000/svg">
<g filter="url(#filter0_d)">
<rect x="10" y="8" width="12" height="10" fill="#702082"/>
<rect x="12" y="2" width="4" height="8" fill="#702082"/>
<ellipse cx="12" cy="7.5" rx="2" ry="2.5" fill="#702082"/>
<path d="M23.3 8.08004C23.019 7.74269 22.6674 7.47113 22.27 7.28452C21.8726 7.0979 21.439 7.0008 21 7.00004H16.44L17 5.57004C17.2329 4.94393 17.3105 4.27065 17.2261 3.60797C17.1416 2.94528 16.8977 2.31297 16.5152 1.76527C16.1327 1.21758 15.623 0.770841 15.0299 0.463388C14.4369 0.155934 13.778 -0.00305943 13.11 4.45912e-05C12.9176 0.000445953 12.7295 0.0563198 12.5681 0.160967C12.4067 0.265615 12.2789 0.414594 12.2 0.590044L9.35 7.00004H7C6.20435 7.00004 5.44129 7.31611 4.87868 7.87872C4.31607 8.44133 4 9.2044 4 10V17C4 17.7957 4.31607 18.5588 4.87868 19.1214C5.44129 19.684 6.20435 20 7 20H19.73C20.4318 19.9998 21.1113 19.7535 21.6503 19.3041C22.1893 18.8546 22.5537 18.2304 22.68 17.54L23.95 10.54C24.0286 10.1074 24.011 9.66283 23.8987 9.23772C23.7864 8.81262 23.582 8.4174 23.3 8.08004ZM9 18H7C6.73478 18 6.48043 17.8947 6.29289 17.7072C6.10536 17.5196 6 17.2653 6 17V10C6 9.73483 6.10536 9.48047 6.29289 9.29294C6.48043 9.1054 6.73478 9.00004 7 9.00004H9V18ZM22 10.18L20.73 17.18C20.6874 17.413 20.5635 17.6233 20.3804 17.7734C20.1973 17.9236 19.9668 18.0039 19.73 18H11V8.21004L13.72 2.09004C14 2.17167 14.26 2.31045 14.4837 2.49763C14.7073 2.6848 14.8897 2.91631 15.0194 3.17754C15.1491 3.43876 15.2232 3.72403 15.2371 4.01535C15.2509 4.30666 15.2043 4.59768 15.1 4.87004L14.57 6.30005C14.4571 6.6023 14.4189 6.92739 14.4589 7.24758C14.4988 7.56776 14.6156 7.87353 14.7993 8.13878C14.983 8.40404 15.2282 8.62091 15.5139 8.77088C15.7996 8.92086 16.1173 8.99948 16.44 9.00004H21C21.1469 8.99981 21.2921 9.03194 21.4252 9.09416C21.5582 9.15638 21.676 9.24716 21.77 9.36004C21.8663 9.47137 21.9369 9.60259 21.9767 9.74434C22.0164 9.88608 22.0244 10.0349 22 10.18Z" fill="#702082"/>
</g>
<defs>
<filter id="filter0_d" x="0" y="0" width="27.9983" height="28" filterUnits="userSpaceOnUse" color-interpolation-filters="sRGB">
<feFlood flood-opacity="0" result="BackgroundImageFix"/>
<feColorMatrix in="SourceAlpha" type="matrix" values="0 0 0 0 0 0 0 0 0 0 0 0 0 0 0 0 0 0 127 0" result="hardAlpha"/>
<feOffset dy="4"/>
<feGaussianBlur stdDeviation="2"/>
<feComposite in2="hardAlpha" operator="out"/>
<feColorMatrix type="matrix" values="0 0 0 0 0 0 0 0 0 0 0 0 0 0 0 0 0 0 0.25 0"/>
<feBlend mode="normal" in2="BackgroundImageFix" result="effect1_dropShadow"/>
<feBlend mode="normal" in="SourceGraphic" in2="effect1_dropShadow" result="shape"/>
</filter>
</defs>
</svg>
