<svg width="21" height="21" viewBox="0 0 21 21" fill="none" xmlns="http://www.w3.org/2000/svg">
<path d="M19.3 8.08004C19.019 7.74269 18.6674 7.47113 18.27 7.28452C17.8726 7.0979 17.439 7.0008 17 7.00004H12.44L13 5.57004C13.2329 4.94393 13.3105 4.27065 13.2261 3.60797C13.1416 2.94528 12.8977 2.31297 12.5152 1.76527C12.1327 1.21758 11.623 0.770841 11.0299 0.463388C10.4369 0.155934 9.77803 -0.00305943 9.11 4.45912e-05C8.91764 0.000445953 8.72948 0.0563198 8.56807 0.160967C8.40666 0.265615 8.27887 0.414594 8.2 0.590044L5.35 7.00004H3C2.20435 7.00004 1.44129 7.31611 0.87868 7.87872C0.316071 8.44133 0 9.2044 0 10V17C0 17.7957 0.316071 18.5588 0.87868 19.1214C1.44129 19.684 2.20435 20 3 20H15.73C16.4318 19.9998 17.1113 19.7535 17.6503 19.3041C18.1893 18.8546 18.5537 18.2304 18.68 17.54L19.95 10.54C20.0286 10.1074 20.011 9.66283 19.8987 9.23772C19.7864 8.81262 19.582 8.4174 19.3 8.08004ZM5 18H3C2.73478 18 2.48043 17.8947 2.29289 17.7072C2.10536 17.5196 2 17.2653 2 17V10C2 9.73483 2.10536 9.48047 2.29289 9.29294C2.48043 9.1054 2.73478 9.00004 3 9.00004H5V18ZM18 10.18L16.73 17.18C16.6874 17.413 16.5635 17.6233 16.3804 17.7734C16.1973 17.9236 15.9668 18.0039 15.73 18H7V8.21004L9.72 2.09004C9.99998 2.17167 10.26 2.31045 10.4837 2.49763C10.7073 2.6848 10.8897 2.91631 11.0194 3.17754C11.1491 3.43876 11.2232 3.72403 11.2371 4.01535C11.2509 4.30666 11.2043 4.59768 11.1 4.87004L10.57 6.30005C10.4571 6.6023 10.4189 6.92739 10.4589 7.24758C10.4988 7.56776 10.6156 7.87353 10.7993 8.13878C10.983 8.40404 11.2282 8.62091 11.5139 8.77088C11.7996 8.92086 12.1173 8.99948 12.44 9.00004H17C17.1469 8.99981 17.2921 9.03194 17.4252 9.09416C17.5582 9.15638 17.676 9.24716 17.77 9.36004C17.8663 9.47137 17.9369 9.60259 17.9767 9.74434C18.0164 9.88608 18.0244 10.0349 18 10.18Z" fill="#702082"/>
<rect x="2" y="8" width="16" height="10" fill="#702082"/>
<rect x="8" y="2" width="4" height="8" fill="#702082"/>
<ellipse cx="9" cy="7.5" rx="2" ry="2.5" fill="#702082"/>
<path d="M20.3017 9.08003C20.0207 8.74268 19.669 8.47111 19.2716 8.2845C18.8741 8.09789 18.4406 8.00078 18.0015 8.00003H13.4411L14.0011 6.57003C14.2341 5.94392 14.3117 5.27064 14.2272 4.60796C14.1428 3.94527 13.8988 3.31297 13.5163 2.76527C13.1337 2.21757 12.624 1.77084 12.0309 1.46339C11.4378 1.15593 10.7789 0.996941 10.1108 1.00004C9.91841 1.00045 9.73024 1.05632 9.56882 1.16097C9.4074 1.26561 9.27959 1.41459 9.20071 1.59004L6.35047 8.00003H4.00026C3.20454 8.00003 2.44141 8.3161 1.87876 8.87871C1.3161 9.44131 1 10.2044 1 11V18C1 18.7957 1.3161 19.5587 1.87876 20.1213C2.44141 20.6839 3.20454 21 4.00026 21H16.7314C17.4332 20.9998 18.1128 20.7535 18.6519 20.304C19.1909 19.8546 19.5553 19.2304 19.6816 18.54L20.9517 11.54C21.0303 11.1074 21.0128 10.6628 20.9005 10.2377C20.7881 9.8126 20.5837 9.41738 20.3017 9.08003ZM6.00044 19H4.00026C3.73502 19 3.48065 18.8946 3.29309 18.7071C3.10554 18.5196 3.00017 18.2652 3.00017 18V11C3.00017 10.7348 3.10554 10.4805 3.29309 10.2929C3.48065 10.1054 3.73502 10 4.00026 10H6.00044V19ZM19.0016 11.18L17.7315 18.18C17.6889 18.413 17.565 18.6232 17.3818 18.7734C17.1987 18.9236 16.9682 19.0039 16.7314 19H8.00061V9.21003L10.7208 3.09004C11.0009 3.17167 11.2609 3.31045 11.4846 3.49762C11.7082 3.6848 11.8907 3.91631 12.0204 4.17753C12.15 4.43876 12.2242 4.72403 12.238 5.01534C12.2519 5.30665 12.2052 5.59767 12.101 5.87003L11.5709 7.30003C11.458 7.60229 11.4198 7.92738 11.4598 8.24756C11.4997 8.56774 11.6165 8.87351 11.8003 9.13877C11.984 9.40402 12.2292 9.62089 12.5149 9.77086C12.8006 9.92084 13.1184 9.99946 13.4411 10H18.0015C18.1484 9.99979 18.2936 10.0319 18.4267 10.0941C18.5598 10.1564 18.6775 10.2471 18.7715 10.36C18.8679 10.4713 18.9385 10.6026 18.9782 10.7443C19.018 10.8861 19.026 11.0348 19.0016 11.18Z" fill="#FCF2F8"/>
</svg>
