<svg width="84" height="144" viewBox="0 0 84 144" fill="none" xmlns="http://www.w3.org/2000/svg">
<path d="M72.4286 45.4979L72.7143 4L57.2857 7.97925L57 29.2967" fill="#702082"/>
<path d="M72.4286 45.4979L72.7143 4L57.2857 7.97925L57 29.2967" stroke="white" stroke-width="5" stroke-miterlimit="10"/>
<path d="M19.2857 45.2137L19.5715 18.2117L4.14289 22.1909L3.85718 32.9349" fill="white"/>
<path d="M19.2857 45.2137L19.5715 18.2117L4.14289 22.1909L3.85718 32.9349" fill="#702082"/>
<path d="M19.2857 45.2137L19.5715 18.2117L4.14289 22.1909L3.85718 32.9349" stroke="white" stroke-width="5" stroke-miterlimit="10"/>
<path d="M46.1429 41.6892V11.39L30.7144 15.3693V30.4336" fill="#702082"/>
<path d="M46.1429 41.6892V11.39L30.7144 15.3693V30.4336" stroke="white" stroke-width="5" stroke-miterlimit="10"/>
<path d="M65.7429 61.6991L43.6286 61.9834L31 39.8132H81V71.6473L59.4 92.112V117.409" fill="white"/>
<path d="M65.7429 61.6991L43.6286 61.9834L31 39.8132H81V71.6473L59.4 92.112V117.409" fill="#702082"/>
<path d="M65.7429 61.6991L43.6286 61.9834L31 39.8132H81V71.6473L59.4 92.112V117.409" stroke="white" stroke-width="5" stroke-miterlimit="10"/>
<path d="M3 41.2345V74.4897L13.8571 89.2698V117.977" stroke="white" stroke-width="5" stroke-miterlimit="10"/>
<path d="M49.2858 74.2054L32.7144 85.0063V134.463" fill="#702082"/>
<path d="M49.2858 74.2054L32.7144 85.0063V134.463" stroke="white" stroke-width="5" stroke-miterlimit="10"/>
<path d="M32.9999 141C36.629 141 39.5713 138.073 39.5713 134.463C39.5713 130.852 36.629 127.925 32.9999 127.925C29.3708 127.925 26.4285 130.852 26.4285 134.463C26.4285 138.073 29.3708 141 32.9999 141Z" fill="#702082" stroke="white" stroke-width="5" stroke-miterlimit="10"/>
<path d="M19.2858 52.3196C22.9149 52.3196 25.8572 49.3927 25.8572 45.7822C25.8572 42.1717 22.9149 39.2449 19.2858 39.2449C15.6565 39.2449 12.7144 42.1717 12.7144 45.7822C12.7144 49.3927 15.6565 52.3196 19.2858 52.3196Z" fill="#702082" stroke="white" stroke-width="5" stroke-miterlimit="10"/>
</svg>
