<svg width="47" height="42" viewBox="0 0 47 42" fill="none" xmlns="http://www.w3.org/2000/svg">
<path d="M13.7083 38.5H7.83329C6.79453 38.5 5.79831 38.1313 5.06379 37.4749C4.32927 36.8185 3.91663 35.9283 3.91663 35V22.75C3.91663 21.8217 4.32927 20.9315 5.06379 20.2751C5.79831 19.6188 6.79453 19.25 7.83329 19.25H13.7083M27.4166 15.75V8.75C27.4166 7.35761 26.7977 6.02226 25.6959 5.03769C24.5941 4.05312 23.0998 3.5 21.5416 3.5L13.7083 19.25V38.5H35.7983C36.7428 38.5095 37.6594 38.2137 38.3792 37.667C39.0989 37.1203 39.5733 36.3596 39.715 35.525L42.4175 19.775C42.5027 19.2734 42.4648 18.7612 42.3065 18.2739C42.1482 17.7867 41.8732 17.336 41.5007 16.9532C41.1281 16.5703 40.6669 16.2644 40.1489 16.0566C39.6309 15.8489 39.0685 15.7443 38.5008 15.75H27.4166Z" stroke="#702082" stroke-width="5" stroke-linecap="round" stroke-linejoin="round"/>
</svg>
